<svg width="40" height="40" viewBox="0 0 40 40" fill="none" xmlns="http://www.w3.org/2000/svg">
<path fill-rule="evenodd" clip-rule="evenodd" d="M20 40C31.0457 40 40 31.0457 40 20C40 8.9543 31.0457 0 20 0C8.9543 0 0 8.9543 0 20C0 31.0457 8.9543 40 20 40ZM17.8684 30.3232L27.6464 20.8291C28.1179 20.3712 28.1179 19.6288 27.6463 19.1709L17.8684 9.67676C17.3969 9.21886 16.6324 9.21886 16.1608 9.67676L15.0203 10.7841C14.5496 11.2412 14.5487 11.9821 15.0183 12.4403L22.7675 20L15.0183 27.5597C14.5487 28.0179 14.5496 28.7588 15.0203 29.2159L16.1608 30.3232C16.6323 30.7811 17.3969 30.7811 17.8684 30.3232Z" fill="#1C1D23"/>
</svg>
