<svg width="40" height="40" viewBox="0 0 40 40" fill="none" xmlns="http://www.w3.org/2000/svg">
<path fill-rule="evenodd" clip-rule="evenodd" d="M20 40C8.95431 40 0 31.0457 0 20C0 8.9543 8.95431 0 20 0C31.0457 0 40 8.9543 40 20C40 31.0457 31.0457 40 20 40ZM22.1316 30.3232L12.3536 20.8291C11.8821 20.3712 11.8821 19.6288 12.3537 19.1709L22.1316 9.67676C22.6031 9.21886 23.3676 9.21886 23.8392 9.67676L24.9797 10.7841C25.4504 11.2412 25.4513 11.9821 24.9817 12.4403L17.2325 20L24.9817 27.5597C25.4513 28.0179 25.4504 28.7588 24.9797 29.2159L23.8392 30.3232C23.3677 30.7811 22.6031 30.7811 22.1316 30.3232Z" fill="#1C1D23"/>
</svg>
